<svg id="Capa_1" enable-background="new 0 0 512 512" height="512" viewBox="0 0 512 512" width="512" xmlns="http://www.w3.org/2000/svg"><g><path d="m256 48.04h-64l-11.16 30h75.16l29.981-15z" fill="#ff6136"/><path d="m331.16 78.04h-75.16v-30h64z" fill="#f01f6c"/><path d="m128 48.041h64v85.743h-64z" fill="#58557d"/><path d="m320 48.041h64v85.743h-64z" fill="#3e3b58"/><path d="m285.981 208.04h-285.981v255.92h256z" fill="#58557d"/><path d="m256 208.04h256v255.92h-256z" fill="#3e3b58"/><path d="m256 112.04h-256v96c-.035 34.705 28.336 64.017 64 64h192l29.981-85.803z" fill="#ff6136"/><path d="m512 112.04v96c0 35.35-28.65 64-64 64h-192v-160z" fill="#f01f6c"/><path d="m96 240.041h64v64h-64z" fill="#fede0e"/><path d="m352 240.041h64v64h-64z" fill="#fbb91e"/></g></svg>