<svg id="Capa_1" enable-background="new 0 0 512 512" height="512" viewBox="0 0 512 512" width="512" xmlns="http://www.w3.org/2000/svg"><path d="m391.5 105.477v-60.25h-271v60.25h-120.5v361.297h512v-361.297zm-30 0h-30.25v-30.25h30.25zm-150.75 0v-30.25h90.5v30.25zm-60.25-30.25h30.25v30.25h-30.25zm-120.5 361.546v-165.841c12.603 9.516 28.277 15.17 45.25 15.17h15.125v30.125h90.25v-30.125h150.75v30.125h90.25v-30.125h15.125c16.973 0 32.647-5.654 45.25-15.17v165.842h-452zm90.375-150.546v-30.25h30.25v30.25zm241 0v-30.25h30.25v30.25zm75.375-30.125h-15.125v-30.125h-90.25v30.125h-150.75v-30.125h-90.25v30.125h-15.125c-24.951 0-45.25-20.299-45.25-45.25v-75.375h452v75.375c0 24.951-20.299 45.25-45.25 45.25z"/></svg>