<svg id="Capa_1" enable-background="new 0 0 512 512" height="512" viewBox="0 0 512 512" width="512" xmlns="http://www.w3.org/2000/svg"><g><g><g><path d="m0 0v108.438l256 14.503 19.291-87.232-19.291-35.709z" fill="#3869ad"/><path d="m415.96 0h-159.96v122.941l113.333 6.42z" fill="#0053a0"/></g><path d="m512 0h-96.04l-65.283 108.438 85.282 20.923 76.041-20.923z" fill="#ffe144"/><g><g><g><path d="m40 40h30v30h-30z" fill="#ff6a6d"/></g></g><g><g><path d="m100 40h30v30h-30z" fill="#fff79f"/></g></g></g><g><path d="m0 108.438v403.562h256l31.503-230.011-31.503-173.551z" fill="#66e5c2"/><path d="m256 108.438h256v403.562h-256z" fill="#4eb8c2"/></g><g><path d="m160 40v30h96l14.98-15-14.98-15z" fill="#0053a0"/><path d="m256 40h54.94v30h-54.94z" fill="#01447f"/></g></g><g><g><g><g><g><g><path d="m125.3 379.839-21.213-21.213 50.507-50.507-50.507-50.507 21.213-21.213 71.721 71.72z" fill="#fff79f"/></g></g></g></g><g><path d="m363.306 345.994h30v30h-30z" fill="#ffe144"/></g></g></g><g><path d="m212.756 345.994v30h43.244l20.683-15-20.683-15z" fill="#fff79f"/><path d="m256 345.994h76.141v30h-76.141z" fill="#ffe144"/></g></g></svg>