<svg id="Capa_1" enable-background="new 0 0 512 512" height="512" viewBox="0 0 512 512" width="512" xmlns="http://www.w3.org/2000/svg"><g><g><path d="m282.85 512h-210v-176.58c-38.203-36.738-60-87.524-60-140.42 0-107.52 87.48-195 195-195 106.318 0 193.037 85.532 194.97 191.396l69.287 138.604h-69.257v122h-120z" fill="#ffe6e6"/></g><path d="m282.85 512v-60h120v-122h69.258l-69.288-138.604c-1.933-105.864-88.652-191.396-194.97-191.396v512z" fill="#fcc"/><g id="Forward_thinking_2_"><path d="m499.15 105-55.801 55.499-20.999-21 19.199-19.499h-263.699c-41.4 0-75 33.6-75 75s33.6 75 75 75c10.499 0 20.7-2.1 30-6.301 11.847-4.555 45-26.165 45-68.699h30c0 47.865-32.158 87.858-75 100.499-9.6 3.001-19.501 4.501-30 4.501-57.9 0-105-47.1-105-105s47.1-105 105-105h263.699l-19.199-19.501 20.999-21z" fill="#80d4ff"/><g><path d="m207.85 161.7c-7.8-7.202-18.3-11.7-30-11.7-24.901 0-45 20.099-45 45 0 24.899 20.099 45 45 45 11.7 0 22.2-4.501 30-11.7.291-.255 15-12.606 15-33.3 0-13.2-5.7-25.201-15-33.3z" fill="#ff641a"/></g></g><g><g fill="#69f"><path d="m282.85 195c0 47.865-32.158 87.858-75 100.499v-31.8c11.847-4.555 45-26.165 45-68.699z"/><path d="m499.15 105-55.801 55.499-20.999-21 19.199-19.499h-233.699v-30h233.699l-19.199-19.501 20.999-21z"/></g><path d="m222.85 195c0 20.694-14.709 33.045-15 33.3v-66.6c9.3 8.099 15 20.1 15 33.3z" fill="#f03800"/></g></g></svg>