<svg id="Capa_1" enable-background="new 0 0 512 512" height="512" viewBox="0 0 512 512" width="512" xmlns="http://www.w3.org/2000/svg"><g><path d="m177.893 150c-24.813 0-45 20.187-45 45s20.187 45 45 45 45-20.187 45-45-20.187-45-45-45zm0 60c-8.271 0-15-6.729-15-15s6.729-15 15-15 15 6.729 15 15-6.729 15-15 15z"/><path d="m387.88 120h53.8l-19.393 19.393 21.213 21.213 55.607-55.606-55.607-55.607-21.213 21.213 19.393 19.394h-69.553c-34.698-54.083-95.346-90-164.234-90-107.523 0-195 87.477-195 195 0 52.891 21.786 103.688 60 140.431v176.569h210v-62h120v-120h69.271l-69.303-138.607c-.462-25.251-5.757-49.34-14.981-71.393zm-14.987 180v120h-120v62h-150v-159.802l-4.985-4.471c-34.962-31.356-55.015-76.089-55.015-122.727 0-90.981 74.019-165 165-165 51.128 0 96.897 23.376 127.186 60h-157.186c-57.897 0-105 47.103-105 105s47.103 105 105 105 105-47.103 105-105h-30c0 41.355-33.645 75-75 75s-75-33.645-75-75 33.645-75 75-75h176.948c11.538 22.514 18.052 48.011 18.052 75v3.541l50.73 101.459z"/></g></svg>