<svg id="Capa_1" enable-background="new 0 0 512 512" height="512" viewBox="0 0 512 512" width="512" xmlns="http://www.w3.org/2000/svg"><g><circle cx="166" cy="60" fill="#ffe1ba" r="60"/><path d="m226 60c0-33.091-26.909-60-60-60v120c33.091 0 60-26.909 60-60z" fill="#ffbfab"/><path d="m226 302-22.264-15h-37.736-35.803l-24.197 15v210h60v-163.965l60 30.02v43.945l33.869 30h26.131v-106.055z" fill="#47568c"/><path d="m226 378.055v43.945l33.869 30h26.131v-106.055l-60-43.945-22.264-15h-37.736v61.035z" fill="#29376d"/><path d="m166 120h-106v-120h-60v180h106v122h60 60v-122h135v-60z" fill="#99f"/><path d="m226 180h135v-60h-195v182h60z" fill="#6680ff"/><path d="m376 452h-30v-332l30-30z" fill="#29376d"/><path d="m512 120h-166v-120h166l-39.99 60z" fill="#e63950"/><path d="m226 422h255v90h-255z" fill="#dfe7f4"/></g></svg>