<svg xmlns="http://www.w3.org/2000/svg" viewBox="0 0 64 80" x="0px" y="0px"><title>Learning-Intelligence-Artificial Intelligence-Book-Education</title><g data-name="Learning Intelligence"><path d="M62,47V13a1,1,0,0,0-1-1H59V9a1,1,0,0,0-1-1H56v2h1V40.319l-3.042-5.266a3,3,0,0,0-5.2,3l1.537,2.654a6.78,6.78,0,0,0-1.23,1.3H36a2.966,2.966,0,0,0-1,.184V29H33V45a1,1,0,0,1-2,0V30H29V42.184A2.966,2.966,0,0,0,28,42H14.937a6.81,6.81,0,0,0-1.229-1.294l1.543-2.666a3,3,0,0,0-5.207-2.99L7,40.323V10H9v5a1,1,0,0,0,1.707.707L12,14.414l1.293,1.293A1,1,0,0,0,14,16a.987.987,0,0,0,.383-.076A1,1,0,0,0,15,15V10H26V8H6A1,1,0,0,0,5,9v3H3a1,1,0,0,0-1,1V47a1,1,0,0,0,1,1H4.87l-2.6,4.5a1,1,0,0,0,.366,1.366l13.86,8A1,1,0,0,0,17,62a1.035,1.035,0,0,0,.259-.034,1,1,0,0,0,.607-.466L25.658,48H38.342l7.792,13.5a1,1,0,0,0,.607.466A1.035,1.035,0,0,0,47,62a1,1,0,0,0,.5-.134l13.86-8a1,1,0,0,0,.366-1.366L59.13,48H61A1,1,0,0,0,62,47ZM13,12.586l-.293-.293a1,1,0,0,0-1.414,0L11,12.586V10h2ZM29,45a2.966,2.966,0,0,0,.184,1H16.369a7.074,7.074,0,0,0-.357-2H28A1,1,0,0,1,29,45ZM4,14H5V43a.984.984,0,0,0,.383.768L5.248,46H4ZM16.634,59.634l-12.128-7,2.5-4.334a1.011,1.011,0,0,0,.132-.438l.256-4.222,4.384-7.593a.987.987,0,0,1,.609-.468.968.968,0,0,1,.749.094.989.989,0,0,1,.471.627.976.976,0,0,1-.092.749l-2,3.463a1,1,0,0,0,.364,1.362A4.887,4.887,0,0,1,13.6,43.543a4.538,4.538,0,0,1,.246.435,5.052,5.052,0,0,1,.493,2.891,4.868,4.868,0,0,1-.632,1.835l1.726,1.012A6.88,6.88,0,0,0,16.142,48h7.206ZM35,45a1,1,0,0,1,1-1H47.988a7.066,7.066,0,0,0-.356,2H34.816A2.966,2.966,0,0,0,35,45ZM47.366,59.634,40.652,48h7.206a6.927,6.927,0,0,0,.709,1.716L50.293,48.7a4.858,4.858,0,0,1-.631-1.828,5.056,5.056,0,0,1,.492-2.9,4.75,4.75,0,0,1,.259-.456,4.864,4.864,0,0,1,1.71-1.648,1,1,0,0,0,.364-1.362l-2-3.452a.994.994,0,0,1-.094-.779.986.986,0,0,1,1.215-.7.99.99,0,0,1,.611.471l4.3,7.457.078.133.256,4.222a1.011,1.011,0,0,0,.132.438l2.5,4.334ZM60,46H58.752l-.135-2.232A.984.984,0,0,0,59,43V14h1Z"/><path d="M29.293,16.707A1,1,0,0,0,30,17h4v3.586L32.285,22.3A2.951,2.951,0,0,0,31,22a3,3,0,1,0,3,3,2.951,2.951,0,0,0-.3-1.285l2.008-2.008A1,1,0,0,0,36,21V17h4v8.184a3,3,0,1,0,2,0V17h4v4a1,1,0,0,0,.293.707L48.3,23.715A2.951,2.951,0,0,0,48,25a3,3,0,1,0,3-3,2.951,2.951,0,0,0-1.285.3L48,20.586V17h4a1,1,0,0,0,.707-.293l2-2A1,1,0,0,0,55,14V11a1,1,0,0,0-.684-.948L52,9.279V7a1,1,0,0,0-.293-.707l-2-2A1,1,0,0,0,49,4H45.3L42.555,2.168A1.006,1.006,0,0,0,42,2H37a1,1,0,0,0-.707.293L33.586,5H32a1,1,0,0,0-.97.758l-.867,3.467-2.479.827A1,1,0,0,0,27,11v3a1,1,0,0,0,.293.707ZM31,26a1,1,0,1,1,1-1A1,1,0,0,1,31,26Zm10,3a1,1,0,1,1,1-1A1,1,0,0,1,41,29Zm11-4a1,1,0,1,1-1-1A1,1,0,0,1,52,25ZM29,11.721l1.73-.577,1.563,1.563A1,1,0,0,0,33,13h1V11h-.586L32.107,9.693,32.781,7H38V5H36.414l1-1H41.7L43.43,5.155,42.586,6H42V8h1a1,1,0,0,0,.707-.293L45.414,6h3.172L50,7.414V9.586L48.586,11H48v2h1a1,1,0,0,0,.707-.293l1.563-1.563,1.73.577v1.865L51.586,15H30.414L29,13.586Z"/><path d="M43,13h3V11H43.414L41.707,9.293l-1.414,1.414,2,2A1,1,0,0,0,43,13Z"/><path d="M37.293,11.707l1.414-1.414-1-1A1,1,0,0,0,37,9H35v2h1.586Z"/><rect x="39" y="34" width="8" height="2"/><rect x="39" y="38" width="8" height="2"/><rect x="11" y="18" width="14" height="2"/><rect x="11" y="22" width="14" height="2"/><rect x="11" y="26" width="14" height="2"/><rect x="11" y="30" width="14" height="2"/><rect x="29" y="18" width="2" height="3"/></g><text x="0" y="79" fill="#000000" font-size="5px" font-weight="bold" font-family="'Helvetica Neue', Helvetica, Arial-Unicode, Arial, Sans-serif">Created by Komkrit Noenpoempisut</text><text x="0" y="84" fill="#000000" font-size="5px" font-weight="bold" font-family="'Helvetica Neue', Helvetica, Arial-Unicode, Arial, Sans-serif">from the Noun Project</text></svg>