<svg id="Capa_1" enable-background="new 0 0 512 512" height="512" viewBox="0 0 512 512" width="512" xmlns="http://www.w3.org/2000/svg"><g><path d="m239.62 346.312c-6.024-46.444-42.792-75.312-83.44-75.312-12.952 0-25.11 3.441-35.68 9.454l-68.531 113.8 68.531 113.801c6.511 2.545 13.575 3.945 20.96 3.945 26.782 0 48.957-20.139 66.355-43.35 16.777-22.382 38.96-67.177 31.805-122.338z" fill="#fa4350"/><path d="m84.82 271c-40.648 0-77.416 28.868-83.44 75.312-7.155 55.161 15.028 99.956 31.805 122.338 17.397 23.211 39.572 43.35 66.355 43.35 7.386 0 14.449-1.401 20.96-3.945v-227.601c-10.57-6.013-22.728-9.454-35.68-9.454z" fill="#ff6457"/><path d="m512 351.33v80.34h-80.33v80.33h-40.17l-30-120.5 30-120.5h40.17v80.33z" fill="#70cf90"/><path d="m391.5 271v241h-40.17v-80.33h-80.33v-80.34h80.33v-80.33z" fill="#96e192"/><path d="m460.031 0c-37.852 0-68.531 30.679-68.531 68.531l-60 86.235 60 86.235 120.5-68.532v-172.469z" fill="#ffecab"/><path d="m322.969 0h-51.969v172.469l120.5 68.531v-172.469c0-37.852-30.679-68.531-68.531-68.531z" fill="#fff8e3"/><path d="m206.735 86.235h-86.235l-34.265 34.265 34.265 34.265h86.235z" fill="#32c2f5"/><path d="m34.265 86.235h86.235v68.531h-86.235z" fill="#6bd9ff"/><path d="m206.735 241c-18.924 0-34.265-15.341-34.265-34.265v-172.47c-.001-18.924 15.34-34.265 34.265-34.265 18.924 0 34.265 15.341 34.265 34.265v172.469c0 18.925-15.341 34.266-34.265 34.266z" fill="#208ad1"/><path d="m34.265 241c-18.924 0-34.265-15.341-34.265-34.265v-172.47c0-18.924 15.341-34.265 34.265-34.265 18.925 0 34.266 15.341 34.266 34.265v172.469c0 18.925-15.341 34.266-34.266 34.266z" fill="#17a2e3"/><path d="m512 172.469v68.531h-120.5c0-37.852 30.679-68.531 68.531-68.531z" fill="#f6d76f"/><path d="m391.5 241h-120.5v-68.531h51.969c37.852 0 68.531 30.679 68.531 68.531z" fill="#ffecab"/></g></svg>