<svg id="Capa_1" enable-background="new 0 0 512.002 512.002" height="512" viewBox="0 0 512.002 512.002" width="512" xmlns="http://www.w3.org/2000/svg"><g><path d="m441.669 271.001h-100.334v70.333h-70.333v100.334h70.333v70.333h100.334v-70.333h70.333v-100.334h-70.333zm40.333 100.333v40.334h-70.333v70.333h-40.334v-70.333h-70.333v-40.334h70.333v-70.333h40.334v70.333z"/><path d="m196.002.001c-24.813 0-45 20.187-45 45v30.5h-61v-30.5c0-24.813-20.187-45-45-45s-45 20.187-45 45v151c0 24.813 20.187 45 45 45s45-20.187 45-45v-30.5h61v30.5c0 24.813 20.187 45 45 45s45-20.187 45-45v-151c0-24.814-20.187-45-45-45zm-136 196c0 8.271-6.729 15-15 15s-15-6.729-15-15v-151c0-8.271 6.729-15 15-15s15 6.729 15 15zm30-60.5v-30h61v30zm121 60.5c0 8.271-6.729 15-15 15s-15-6.729-15-15v-151c0-8.271 6.729-15 15-15s15 6.729 15 15z"/><path d="m451.502.001c-24.507 0-46.306 11.814-60 30.047-13.694-18.232-35.493-30.047-60-30.047h-60.5v241h241v-241h-60.5zm0 30h30.5v121h-30.5c-16.871 0-32.456 5.603-45 15.041v-91.041c0-24.814 20.186-45 45-45zm-120 0c24.813 0 45 20.187 45 45v91.041c-12.544-9.438-28.129-15.041-45-15.041h-30.5v-121zm-30.5 151h30.5c19.555 0 36.228 12.541 42.42 30h-72.92zm108.08 30c6.192-17.459 22.865-30 42.42-30h30.5v30z"/><path d="m209.459 292.386c-15.912-13.79-36.41-21.385-57.719-21.385-10.748 0-21.403 2.239-31.238 6.526-9.835-4.287-20.49-6.526-31.238-6.526-21.309 0-41.807 7.595-57.719 21.385-16.758 14.523-27.204 34.449-30.21 57.623-7.907 60.95 21.513 105.755 30.718 118.036 21.863 29.167 45.448 43.956 70.098 43.956 6.253 0 12.402-.88 18.352-2.621 5.949 1.741 12.099 2.621 18.352 2.621 24.649 0 48.234-14.789 70.098-43.956 9.205-12.281 38.625-57.086 30.718-118.036-3.008-23.174-13.454-43.1-30.212-57.623zm-24.513 157.665c-15.892 21.201-31.399 31.95-46.093 31.95-4.436 0-8.773-.816-12.893-2.426l-5.459-2.133-5.459 2.133c-4.119 1.609-8.457 2.426-12.893 2.426-14.693 0-30.201-10.749-46.093-31.95-7.488-9.991-31.423-46.455-24.973-96.183 4.038-31.128 27.962-52.867 58.179-52.867 8.322 0 16.559 2.184 23.821 6.315l7.417 4.22 7.417-4.22c7.263-4.132 15.499-6.315 23.821-6.315 30.217 0 54.141 21.739 58.179 52.867 6.452 49.728-17.483 86.191-24.971 96.183z"/></g></svg>