<svg id="Capa_1" enable-background="new 0 0 512 512" viewBox="0 0 512 512" xmlns="http://www.w3.org/2000/svg"><g><path d="m346 241h-83v15l36.477 5.157 46.523-5.157z" fill="#50f9ff"/><path d="m263 256h83v15h-83z" fill="#2ad7f5"/><path d="m316.213 211h-72.213l22-30.01 37.787.01 41.5-41.5h92.713v30h-80.287z" fill="#50f9ff"/><path d="m292.153 151h-30.153v-30h17.847l68.62-67.68 21.066 21.36z" fill="#50f9ff"/><path d="m438 372.5h-92.713l-41.5-41.5h-40.787v-30h53.213l41.5 41.5h80.287z" fill="#2ad7f5"/><path d="m348.467 458.68-68.62-67.68h-17.847v-30h30.153l77.38 76.32z" fill="#2ad7f5"/><circle cx="467" cy="154.5" fill="#b0fff5" r="45"/><circle cx="383" cy="64" fill="#b0fff5" r="45"/><circle cx="467" cy="357.5" fill="#72fff1" r="45"/><circle cx="383" cy="448" fill="#72fff1" r="45"/><path d="m367 211c-24.813 0-45 20.187-45 45l47.533 9.407 42.467-9.407c0-24.813-20.187-45-45-45z" fill="#b0fff5"/><path d="m367 301c24.813 0 45-20.187 45-45h-90c0 24.813 20.187 45 45 45z" fill="#72fff1"/><path d="m184.396 29.095c-37.022 0-68.852 24.841-78.559 59.506-36.174 5.205-65.273 32.609-73.039 67.898l9.184 15.161s-10.273 16.611-10.181 16.812l-.092-.201c.012.083.021.166.033.249-20.045 16.56-31.742 41.095-31.742 67.48l146.262 15 119.738-15v-45.01l-16.346-9.236 16.346-20.764v-70.292c0-44.996-36.607-81.603-81.604-81.603z" fill="#f69"/><g fill="#f40b75"><path d="m94.996 209.685 26.337-14.365c-9.571-17.548-25.278-30.714-44.227-37.075-14.442-4.848-29.765-5.394-44.307-1.746-1.336 6.069-2.058 12.365-2.058 18.829 0 4.331.328 8.658.969 12.943l.092.201c23.233-10.478 50.99-1.161 63.194 21.213z"/><path d="m189.447 231.818 27.649 11.643c8.305-19.726 27.501-32.471 48.904-32.471v-30c-33.503 0-63.552 19.952-76.553 50.828z"/><path d="m0 256c0 26.385 11.697 50.92 31.742 67.48-.666 4.366-1.002 8.777-1.002 13.192 0 32.856 18.204 61.552 45.05 76.547l16.083-6.356 13.964 16.536c9.707 34.664 41.537 59.506 78.559 59.506 44.996 0 81.604-36.607 81.604-81.604v-145.301z"/></g><path d="m146.293 341.422-11.21-27.826c-35.998 14.5-59.257 48.946-59.257 87.754l-.036 11.87c9.141 5.106 19.279 8.63 30.048 10.179l-.012-22.05c0-26.502 15.884-50.024 40.467-59.927z" fill="#d10763"/></g><g/><g/><g/><g/><g/><g/><g/><g/><g/><g/><g/><g/><g/><g/><g/></svg>