<svg id="Capa_1" enable-background="new 0 0 511.8 511.8" viewBox="0 0 511.8 511.8" xmlns="http://www.w3.org/2000/svg"><g><path d="m466.8 312.4c-19.555 0-36.228 12.541-42.42 30h-75.867l-41.5-41.5h-41.213v-30h58.58c6.192 17.459 22.865 30 42.42 30 24.813 0 45-20.187 45-45s-20.187-45-45-45c-19.555 0-36.228 12.541-42.42 30h-58.58v-30h41.213l41.5-41.5h75.867c6.192 17.459 22.865 30 42.42 30 24.813 0 45-20.187 45-45s-20.187-45-45-45c-19.555 0-36.228 12.541-42.42 30h-88.294l-41.5 41.5h-28.786v-30h17.153l62.615-61.757c8.104 11.915 21.769 19.757 37.233 19.757 24.813 0 45-20.187 45-45s-20.187-45-45-45c-21.213 0-39.033 14.759-43.761 34.545l-68.393 67.455h-4.847v-10.302c0-44.996-36.607-81.604-81.604-81.604-37.021 0-68.852 24.841-78.558 59.506-46.936 6.27-81.834 52.076-74.096 99.919-42.061 33.595-42.053 101.373 0 134.961-7.737 47.846 27.159 93.645 74.096 99.919 9.707 34.664 41.537 59.506 78.559 59.506 44.996 0 81.604-36.607 81.604-81.604v-10.301h4.847l68.392 67.455c4.728 19.786 22.548 34.545 43.761 34.545 24.813 0 45-20.187 45-45s-20.187-45-45-45c-15.464 0-29.129 7.842-37.233 19.757l-62.615-61.757h-17.153v-30h28.787l41.5 41.5h88.294c6.192 17.459 22.865 30 42.42 30 24.813 0 45-20.187 45-45s-20.188-45-45.001-45zm-100-71.5c8.271 0 15 6.729 15 15s-6.729 15-15 15-15-6.729-15-15 6.729-15 15-15zm100-101.5c8.271 0 15 6.729 15 15s-6.729 15-15 15-15-6.729-15-15 6.729-15 15-15zm-84-90.5c8.271 0 15 6.729 15 15s-6.729 15-15 15-15-6.729-15-15 6.729-15 15-15zm-147 130.35c-27.249 4.97-50.53 23.29-61.553 49.47l27.649 11.642c6.159-14.627 18.309-25.41 32.904-30.01v.549h1v189.463c0 28.359-22.527 52.047-50.883 52.437-26.164.36-48.372-18.904-51.83-44.648v-20.91c0-26.503 15.884-50.025 40.467-59.927l-11.209-27.828c-35.998 14.5-59.258 48.945-59.258 87.755v4.936c-29.769-7.499-49.453-40.714-40.413-71.125-.001 0 2.975-10.664 2.975-10.664l-9.314-5.985c-29.668-18.452-34.367-59.405-13.775-84.847 15.3-18.903 44.939-17.788 57.485 3.046.261.433 27.094-13.044 27.094-13.044-12.491-23.627-40.248-37.603-66.589-33.765-.353-31.932 25.624-58.173 57.552-58.186 0 0 13.299-.014 13.299-.014l1.58-13.204c3.114-26.024 25.361-45.613 51.654-45.394 28.469.238 51.166 23.981 51.166 52.451v67.802zm147 253.65c8.271 0 15 6.729 15 15s-6.729 15-15 15-15-6.729-15-15 6.729-15 15-15zm84-60.5c-8.271 0-15-6.729-15-15s6.729-15 15-15 15 6.729 15 15-6.729 15-15 15z"/></g><g/><g/><g/><g/><g/><g/><g/><g/><g/><g/><g/><g/><g/><g/><g/></svg>