<svg id="Capa_1" enable-background="new 0 0 510.079 510.079" height="512" viewBox="0 0 510.079 510.079" width="512" xmlns="http://www.w3.org/2000/svg"><g><path d="m441.75 198.82-61.153 123.518-12.511 2.022v-187.48c-20.75 8.95-44.81 6.14-62.91-7.52-27.73 27.58-72.47 27.55-100.18 0-18.16 13.69-42.2 16.45-62.91 7.52v187.48h-11.957l-62.222-125.533c-43.007-86.766 14.372-192.841 115.059-198.567 7.168-.397 138.351-.255 141.85-.11 99.84 3.777 160.821 110.025 116.934 198.67z" fill="#e5eaee"/><path d="m441.966 199.204c-26.058 52.177-28.921 59.166-60.093 120.325l-13.787 4.831v-187.48c-20.75 8.95-44.81 6.14-62.91-7.52-13.27 13.2-31.27 20.68-50.09 20.68v-150c67.947 0 70.435-.376 82.613 1.189 93.442 12.009 146.36 113.691 104.267 197.975z" fill="#d1d9e1"/><path d="m398.086 129.34v158.38c-16.194 27.155-11.243 19.625-22.17 34.19l-36.3 19.78c-14.66 5.49-31.32-1.91-37.13-16.51-5.71-14.39-25.64-24.82-47.4-24.82s-41.69 10.43-47.4 24.81c-5.833 14.654-22.531 21.991-37.12 16.52l-40.27-21.82 4.43-9.53-22.64-22.62v-158.38c0-19.533 21.266-31.932 38.17-21.91 12.181 7.255 27.841 5.863 38.59-3.58 10.38-9.13 26.32-8.08 35.51 2.33 16.304 18.439 45.101 18.501 61.46 0 9.19-10.41 25.12-11.46 35.51-2.33 10.736 9.431 26.395 10.844 38.59 3.58 16.948-10.049 38.17 2.43 38.17 21.91z" fill="#ffe3c1"/><path d="m398.086 129.34v158.38c-16.194 27.155-11.243 19.625-22.17 34.19l-36.3 19.78c-14.66 5.49-31.32-1.91-37.13-16.51-5.71-14.39-25.64-24.82-47.4-24.82v-180.32c11.74 0 22.94-5.05 30.73-13.86 9.19-10.41 25.12-11.46 35.51-2.33 10.736 9.431 26.395 10.844 38.59 3.58 16.948-10.049 38.17 2.43 38.17 21.91z" fill="#f1d0a4"/><path d="m246.086 287.04h-30v-75.132l-91.281-14.043 4.562-29.651 116.719 17.957z" fill="#f1d0a4"/><path d="m398.046 416.11c-3.695 51.932-50.09 92.141-98.51 93.83-3.651.181-84.747.221-90.52-.1-51.665-3.233-95.137-46.896-96.93-94.8 0-5.412 0-117.451 0-127.32 22.938 8.6 45.371 17.01 68.07 25.52 23.757-57.017 126.11-57.079 149.86 0 22.701-8.51 45.132-16.92 68.07-25.52 0 22.828-.04 128.27-.04 128.39z" fill="#f7f9fa"/><path d="m398.046 416.11c-3.561 50.049-46.239 88.899-93.78 93.46-8.555 0 18.643.543-49.18.48v-239.6c31.03-.013 62.92 13.926 74.93 42.79 22.701-8.51 45.132-16.92 68.07-25.52 0 22.828-.04 128.27-.04 128.39z" fill="#e5eaee"/><path d="m278.474 176.039h105.224v30h-105.224z" fill="#f1ba87" transform="matrix(.988 -.152 .152 .988 -25.202 52.574)"/><path d="m206.086 415.04v94.55c-10.695-1.086-20.913-4.179-30-8.68v-85.87z" fill="#e5eaee"/><path d="m240.086 415.04h30v95h-30z" fill="#e5eaee"/><g fill="#d1d9e1"><path d="m255.086 415.04h15v95h-15z"/><path d="m334.086 415.04v85.86c-9.88 4.879-20.056 7.681-30 8.69v-94.55z"/></g></g></svg>