<svg id="Capa_1" enable-background="new 0 0 510.085 510.085" height="512" viewBox="0 0 510.085 510.085" width="512" xmlns="http://www.w3.org/2000/svg"><g><path d="m319.177.085c-9.538 0-88.441 0-102.03 0-31.037 0-65.711-2.845-106.062 24.417-46.955 31.723-69.478 89.255-57.764 144.93.427 2.027-4.165-9.42 58.766 142.948 0 110.673-.019 102.177.038 103.771 3.828 53.772 52.606 93.935 102.722 93.935h80.48c49.435 0 98.813-39.315 102.76-94.467v-103.238l58.481-141.593c19.034-90.536-47.929-170.703-137.391-170.703zm48.911 170.131-91.281 14.043 4.563 29.651 86.719-13.341v98.44l-38.063 14.274c-12.659-30.37-49.454-45.553-83.937-42.473v-84.594l-104-16v-33.296c20.699 8.943 44.758 6.168 62.914-7.518 27.718 27.582 72.485 27.548 100.172 0 18.222 13.739 42.296 16.427 62.914 7.519v33.295zm-152 108.291c-16.625 7.458-29.628 19.64-35.937 34.776l-38.063-14.274v-98.441l74 11.385zm118 189.854v-53.276h-30v64.381c-5.974.819-6.979.619-34 .619v-65h-30v65c-27.191 0-28.096.191-34-.619v-64.381h-30v53.276c-18.052-11.341-32.141-30.249-34-53.837v-83.474l28.468 10.676c14.628 5.485 31.309-1.866 37.128-16.512 5.711-14.375 25.647-24.809 47.404-24.809s41.692 10.434 47.403 24.81c5.804 14.605 22.463 22.012 37.128 16.511l28.469-10.676v83.475c-1.859 23.587-15.949 42.495-34 53.836zm93.678-306.423-29.679 71.856v-104.41c0-19.385-21.168-32-38.171-21.905-12.106 7.19-27.751 5.933-38.587-3.581-10.386-9.13-26.317-8.085-35.513 2.324-16.27 18.412-45.075 18.54-61.458.002-9.197-10.411-25.127-11.454-35.509-2.331-10.776 9.462-26.41 10.823-38.596 3.583-17.07-10.131-38.167 2.611-38.167 21.909v104.409l-29.678-71.856c-13.842-69.806 38.851-131.853 108.59-131.853h102.03c31.063 0 57.305-2.318 89.267 19.275 36.424 24.608 54.177 68.676 45.471 112.578z"/></g></svg>